<svg xmlns="http://www.w3.org/2000/svg" viewBox="0 0 512 512" width="512" height="512" role="img" aria-label="my-tutor.ru">
 <rect width="512" height="512" rx="112" fill="#E4F7F8"/>
 <g transform="translate(-129.51 7.90) scale(1.24359)">
  <path fill="#72C4EE" d="M292.1 292.4 c-1.7 -3.6 -3.1 -8.1 -3.1 -9.8 0 -2.8 0.5 -3.4 3.8 -4.5 2 -0.7 12.3 -5.5 22.7 -10.6 35.6 -17.6 65.4 -36.9 94.2 -61.3 l10.3 -8.6 -5 -5.1 c-3.8 -3.8 -5 -5.8 -5 -8.1 l0 -3 24.3 -4.7 c28.9 -5.7 29.7 -5.8 29.7 -1.8 0 1.6 -2.2 13.1 -5 25.5 -2.7 12.4 -5 23.3 -5 24.1 0 1 -1 1.5 -3.5 1.5 -2.8 0 -4.2 -0.9 -8.1 -5 -2.6 -2.8 -5.2 -5 -5.7 -5 -0.6 0 -2.7 1.5 -4.7 3.4 -12.5 12.1 -48.5 37.4 -72 50.8 -24.6 14 -56.2 28.8 -61.5 28.8 -3.1 0 -3.5 -0.4 -6.4 -6.6z"/>
  <path fill="#0EBCBD" d="M313.2 222.8 c-2.5 -3.2 -5.2 -10 -5.2 -13.1 0 -3.3 0.4 -3.7 9.3 -8.7 30.8 -17.4 69.9 -47.5 96.1 -73.9 l9.9 -10 -5.1 -4.6 c-4.5 -4.1 -5.2 -5.2 -5.2 -8.5 0 -3.6 0.2 -3.8 3.8 -4.5 2 -0.3 12.3 -2.6 22.9 -5.1 10.6 -2.4 20.9 -4.4 22.9 -4.4 l3.7 0 -0.6 6.3 c-0.3 3.4 -1.5 11.2 -2.6 17.2 -1.1 6.1 -2.8 15.4 -3.8 20.7 l-1.7 9.8 -3.6 0 c-3 0 -4.4 -0.8 -8.4 -4.9 l-4.7 -4.8 -6.2 6.2 c-28.7 28.6 -70.4 59.9 -105.9 79.3 -7.9 4.3 -13.6 5.4 -15.6 3z"/>
  <path fill="#0EBCBD" d="M156.5 306.5 c-2.1 -2 -2.5 -3.3 -2.5 -8.8 l0 -6.4 17.2 -17.7 17.2 -17.8 6 -13.4 c3.3 -7.4 6.6 -13.4 7.3 -13.4 0.9 0 1.3 -1.7 1.3 -5.7 0 -4.7 1 -8.1 5.4 -18.3 2.9 -6.9 5.2 -12.6 5.1 -12.8 -0.1 -0.1 -1.3 0.2 -2.7 0.7 -1.5 0.5 -6 5.7 -10.7 12 l-8.2 11.1 -6.9 0 c-9.1 0 -11 -1.6 -11 -9.6 0 -5.3 0.3 -6 8.6 -17.8 4.7 -6.8 9.6 -13.4 10.9 -14.6 2.5 -2.4 33.3 -11.5 42.7 -12.7 l4.7 -0.6 -2.2 -2.9 c-1.7 -2.2 -2.3 -4.7 -2.6 -10.5 -0.4 -9.5 0.9 -13.9 5.4 -18.5 4.5 -4.5 10.5 -6.2 19 -5.6 7.6 0.7 12.1 3.1 15.9 8.8 2.3 3.5 2.6 4.9 2.6 12.6 0 7.5 -0.4 9.3 -2.5 13 -3.1 5.3 -7.9 8.3 -14.4 9.1 l-5 0.6 9.6 7.3 c5.3 4 10 7.1 10.4 6.9 0.4 -0.3 5.5 -4.1 11.3 -8.5 10.2 -7.7 10.9 -8 16 -8 3.9 0 6 0.6 8 2.1 2.3 1.8 2.6 2.7 2.6 8.3 0 7.3 1 6.1 -18.4 21.9 -16.9 13.8 -20.1 14.5 -33.7 6.7 l-6.7 -3.8 -4.6 10.1 c-2.5 5.5 -4.3 10.4 -3.9 10.7 0.5 0.4 6.1 2.6 12.6 5 14.8 5.3 16.7 7.2 16.7 16.6 0 6.1 -0.6 7.8 -10.2 28.5 -6.4 13.9 -11 22.7 -12.6 24 -1.7 1.3 -4 1.9 -7.8 1.9 -7.1 0 -10.4 -2.7 -11.1 -9.2 -0.6 -4.8 0.3 -7.8 7.6 -27.6 2.2 -6 2.7 -8.4 1.8 -8.7 -5.7 -1.9 -18.9 -5.6 -19.1 -5.3 -0.1 0.1 -0.8 1.7 -1.5 3.3 -0.7 1.7 -4.1 8 -7.7 14.1 -6.7 11.7 -8.5 13.5 -37.2 38.2 -8.3 7.2 -8.3 7.2 -14.3 7.2 -5 0 -6.4 -0.4 -8.4 -2.5z"/>
 </g>
</svg>
